# xmcd
#
# Track frame offsets:
# 150
# 18687
# 53206
# 73940
# 96689
# 115888
# 138352
# 156045
# 173960
# 196594
# 227237
# 248102
# 268533
# 322278
#
# Disc length: 4685 seconds
#
#
# Revision: 6
# Processed by: cddbd v1.5.1PL0 Copyright (c) Steve Scherf et al.
# Submitted via: FreeRIP 2.90 
#
DISCID=d1124b0e
DTITLE=Jovanotti - Il quinto mondo
DYEAR=2002
DGENRE=Other
TTITLE0=salvami
TTITLE1=un uomo
TTITLE2=albero di mele
TTITLE3=ti sposerò
TTITLE4=morirò d'amore
TTITLE5=la vita vale
TTITLE6=noi
TTITLE7=salato parte uno
TTITLE8=salato parte due
TTITLE9=canzone d'amore esagerata
TTITLE10=(storia di un) corazon
TTITLE11=il quinto mondo
TTITLE12=date al diavolo un bimbo per cena
TTITLE13=30 modi per salvare il mondo
EXTD=YEAR: 2002 ID3G:  12
EXTT0=
EXTT1=
EXTT2=
EXTT3=
EXTT4=
EXTT5=
EXTT6=
EXTT7=
EXTT8=
EXTT9=
EXTT10=
EXTT11=
EXTT12=
EXTT13=
PLAYORDER=
